0
SECTION
2
HEADER
9
$ACADVER
1
AC1009
9
$INSUNITS
70
4
9
$MEASUREMENT
70
1
9
$EXTMIN
10
0
20
0
30
0
9
$EXTMAX
10
120.0
20
200.0
30
0
0
ENDSEC
0
SECTION
2
TABLES
0
TABLE
2
LAYER
70
2
0
LAYER
2
SCHNITT
70
0
62
1
6
CONTINUOUS
0
LAYER
2
MARKIERUNG
70
0
62
8
6
CONTINUOUS
0
ENDTAB
0
ENDSEC
0
SECTION
2
ENTITIES
0
LINE
8
SCHNITT
10
8.000
20
0.000
30
0.0
11
112.000
21
0.000
31
0.0
0
ARC
8
SCHNITT
10
112.000
20
8.000
30
0.0
40
8.000
50
270.00
51
360.00
0
LINE
8
SCHNITT
10
120.000
20
8.000
30
0.0
11
120.000
21
192.000
31
0.0
0
ARC
8
SCHNITT
10
112.000
20
192.000
30
0.0
40
8.000
50
0.00
51
90.00
0
LINE
8
SCHNITT
10
112.000
20
200.000
30
0.0
11
8.000
21
200.000
31
0.0
0
ARC
8
SCHNITT
10
8.000
20
192.000
30
0.0
40
8.000
50
90.00
51
180.00
0
LINE
8
SCHNITT
10
0.000
20
192.000
30
0.0
11
0.000
21
8.000
31
0.0
0
ARC
8
SCHNITT
10
8.000
20
8.000
30
0.0
40
8.000
50
180.00
51
270.00
0
LINE
8
SCHNITT
10
21.500
20
101.000
30
0.0
11
98.500
21
101.000
31
0.0
0
ARC
8
SCHNITT
10
98.500
20
103.000
30
0.0
40
2.000
50
270.00
51
360.00
0
LINE
8
SCHNITT
10
100.500
20
103.000
30
0.0
11
100.500
21
180.000
31
0.0
0
ARC
8
SCHNITT
10
98.500
20
180.000
30
0.0
40
2.000
50
0.00
51
90.00
0
LINE
8
SCHNITT
10
98.500
20
182.000
30
0.0
11
21.500
21
182.000
31
0.0
0
ARC
8
SCHNITT
10
21.500
20
180.000
30
0.0
40
2.000
50
90.00
51
180.00
0
LINE
8
SCHNITT
10
19.500
20
180.000
30
0.0
11
19.500
21
103.000
31
0.0
0
ARC
8
SCHNITT
10
21.500
20
103.000
30
0.0
40
2.000
50
180.00
51
270.00
0
LINE
8
MARKIERUNG
10
58.000
20
139.500
30
0.0
11
62.000
21
143.500
31
0.0
0
LINE
8
MARKIERUNG
10
58.000
20
143.500
30
0.0
11
62.000
21
139.500
31
0.0
0
LINE
8
MARKIERUNG
10
18.000
20
99.500
30
0.0
11
21.000
21
102.500
31
0.0
0
LINE
8
MARKIERUNG
10
18.000
20
102.500
30
0.0
11
21.000
21
99.500
31
0.0
0
LINE
8
MARKIERUNG
10
18.000
20
180.500
30
0.0
11
21.000
21
183.500
31
0.0
0
LINE
8
MARKIERUNG
10
18.000
20
183.500
30
0.0
11
21.000
21
180.500
31
0.0
0
LINE
8
MARKIERUNG
10
99.000
20
99.500
30
0.0
11
102.000
21
102.500
31
0.0
0
LINE
8
MARKIERUNG
10
99.000
20
102.500
30
0.0
11
102.000
21
99.500
31
0.0
0
LINE
8
MARKIERUNG
10
99.000
20
180.500
30
0.0
11
102.000
21
183.500
31
0.0
0
LINE
8
MARKIERUNG
10
99.000
20
183.500
30
0.0
11
102.000
21
180.500
31
0.0
0
ENDSEC
0
EOF
